# xmcd
#
# Track frame offsets:
#	150
#	53626
#	102676
#	157966
#
# Disc length: 2863 seconds
#
# Revision: 0
# Processed by: cddbd v1.5.2PL0 Copyright (c) Steve Scherf et al.
# Submitted via: EasyCDDAExtractor 11.0.0.1
#
DISCID=2b0b2d04
DTITLE=Mary Tere Salas - Medición.  Su Importancia para Lograr las Metas
DYEAR=1900
DGENRE=Speech
TTITLE0=Medición.  Su Importancia para Lograr las Metas
TTITLE1=Medición.  Su Importancia para Lograr las Metas
TTITLE2=Medición.  Su Importancia para Lograr las Metas
TTITLE3=Medición.  Su Importancia para Lograr las Metas
EXTD=
EXTT0=
EXTT1=
EXTT2=
EXTT3=
PLAYORDER=
